<svg width="24" height="24" viewBox="0 0 24 24" fill="none" xmlns="http://www.w3.org/2000/svg">
<path fill-rule="evenodd" clip-rule="evenodd" d="M16 4.72727C16 4.32561 15.6418 4 15.2 4C14.7582 4 14.4 4.32561 14.4 4.72727V5.45455H9.6V4.72727C9.6 4.32561 9.24183 4 8.8 4C8.35817 4 8 4.32561 8 4.72727V5.45455H6.4C5.07452 5.45455 4 6.43138 4 7.63636V17.8182C4 19.0232 5.07452 20 6.4 20H17.6C18.9255 20 20 19.0232 20 17.8182V7.63636C20 6.43138 18.9255 5.45455 17.6 5.45455H16V4.72727ZM18.4 9.81818V7.63636C18.4 7.2347 18.0418 6.90909 17.6 6.90909H16V7.63636C16 8.03803 15.6418 8.36364 15.2 8.36364C14.7582 8.36364 14.4 8.03803 14.4 7.63636V6.90909H9.6V7.63636C9.6 8.03803 9.24183 8.36364 8.8 8.36364C8.35817 8.36364 8 8.03803 8 7.63636V6.90909H6.4C5.95817 6.90909 5.6 7.2347 5.6 7.63636V9.81818H18.4ZM5.6 11.2727H18.4V17.8182C18.4 18.2198 18.0418 18.5455 17.6 18.5455H6.4C5.95817 18.5455 5.6 18.2198 5.6 17.8182V11.2727Z" fill="#DBD7C8"/>
</svg>
