<svg width="24" height="24" viewBox="0 0 24 24" fill="none" xmlns="http://www.w3.org/2000/svg">
<path fill-rule="evenodd" clip-rule="evenodd" d="M18.0909 4.72727C18.0909 4.32561 17.7653 4 17.3636 4H7.54545C6.87036 4 6.22291 4.26818 5.74555 4.74555C5.26818 5.22291 5 5.87036 5 6.54545V17.4545C5 18.1296 5.26818 18.7771 5.74555 19.2545C6.22291 19.7318 6.87036 20 7.54545 20H17.3636C17.7653 20 18.0909 19.6744 18.0909 19.2727V4.72727ZM6.77407 5.77407C6.97865 5.56948 7.25613 5.45455 7.54545 5.45455H16.6364V14.9091H7.54545C7.16448 14.9091 6.79231 14.9945 6.45455 15.1547V6.54545C6.45455 6.25613 6.56948 5.97865 6.77407 5.77407ZM6.45455 17.4545C6.45455 17.7439 6.56948 18.0213 6.77407 18.2259C6.97865 18.4305 7.25613 18.5455 7.54545 18.5455H16.6364V16.3636H7.54545C7.25613 16.3636 6.97865 16.4786 6.77407 16.6832C6.56948 16.8877 6.45455 17.1652 6.45455 17.4545Z" fill="#DBD7C8"/>
</svg>
