<svg width="24" height="24" viewBox="0 0 24 24" fill="none" xmlns="http://www.w3.org/2000/svg">
<path fill-rule="evenodd" clip-rule="evenodd" d="M9.75767 5.04025C9.91831 5.40846 9.75011 5.83722 9.38198 5.9979C8.40207 6.42562 7.54183 7.08693 6.87646 7.924C6.21109 8.76108 5.76086 9.74845 5.56514 10.7998C5.36941 11.8511 5.43414 12.9344 5.75367 13.9549C6.0732 14.9754 6.6378 15.9021 7.39811 16.654C8.15841 17.4058 9.09129 17.9599 10.1152 18.2679C11.139 18.5758 12.2227 18.6282 13.2715 18.4204C14.3203 18.2126 15.3022 17.751 16.1315 17.076C16.9607 16.401 17.612 15.533 18.0284 14.5481C18.1848 14.1781 18.6115 14.0049 18.9814 14.1614C19.3514 14.3179 19.5245 14.7447 19.368 15.1147C18.8591 16.3185 18.0631 17.3794 17.0496 18.2044C16.0361 19.0294 14.8359 19.5936 13.5541 19.8475C12.2723 20.1015 10.9477 20.0375 9.69633 19.6611C8.44494 19.2847 7.30476 18.6075 6.37549 17.6886C5.44623 16.7696 4.75616 15.637 4.36562 14.3897C3.97509 13.1424 3.89597 11.8184 4.1352 10.5334C4.37442 9.24848 4.9247 8.0417 5.73793 7.0186C6.55115 5.99551 7.60256 5.18725 8.80023 4.66448C9.16836 4.5038 9.59702 4.67204 9.75767 5.04025Z" fill="#DBD7C8"/>
<path fill-rule="evenodd" clip-rule="evenodd" d="M11.4859 4.21306C11.6223 4.07664 11.8073 4 12.0001 4C13.0507 4 14.091 4.20697 15.0616 4.60909C16.0321 5.01122 16.914 5.60062 17.6569 6.34364C18.3998 7.08667 18.989 7.96877 19.391 8.93958C19.7931 9.91039 20 10.9509 20 12.0017C20 12.4034 19.6744 12.7291 19.2727 12.7291H12.0001C11.5985 12.7291 11.2729 12.4034 11.2729 12.0017V4.72743C11.2729 4.5345 11.3495 4.34948 11.4859 4.21306ZM12.7274 5.49539V11.2743H18.505C18.4368 10.6643 18.283 10.0656 18.0472 9.49633C17.7183 8.70203 17.2362 7.98031 16.6284 7.37238C16.0206 6.76445 15.2991 6.28221 14.5049 5.9532C13.9358 5.71738 13.3373 5.56359 12.7274 5.49539Z" fill="#DBD7C8"/>
</svg>
