<svg width="24" height="24" viewBox="0 0 24 24" fill="none" xmlns="http://www.w3.org/2000/svg">
<path d="M7.49984 13.667C7.10201 13.667 6.72048 13.509 6.43918 13.2277C6.15787 12.9463 5.99984 12.5648 5.99984 12.167C5.99984 11.7692 6.15787 11.3876 6.43918 11.1063C6.72048 10.825 7.10201 10.667 7.49984 10.667C7.89766 10.667 8.27919 10.825 8.5605 11.1063C8.8418 11.3876 8.99984 11.7692 8.99984 12.167C8.99984 12.5648 8.8418 12.9463 8.5605 13.2277C8.27919 13.509 7.89766 13.667 7.49984 13.667ZM12.4998 13.667C12.102 13.667 11.7205 13.509 11.4392 13.2277C11.1579 12.9463 10.9998 12.5648 10.9998 12.167C10.9998 11.7692 11.1579 11.3876 11.4392 11.1063C11.7205 10.825 12.102 10.667 12.4998 10.667C12.8977 10.667 13.2792 10.825 13.5605 11.1063C13.8418 11.3876 13.9998 11.7692 13.9998 12.167C13.9998 12.5648 13.8418 12.9463 13.5605 13.2277C13.2792 13.509 12.8977 13.667 12.4998 13.667ZM17.4998 13.667C17.102 13.667 16.7205 13.509 16.4392 13.2277C16.1579 12.9463 15.9998 12.5648 15.9998 12.167C15.9998 11.7692 16.1579 11.3876 16.4392 11.1063C16.7205 10.825 17.102 10.667 17.4998 10.667C17.8977 10.667 18.2792 10.825 18.5605 11.1063C18.8418 11.3876 18.9998 11.7692 18.9998 12.167C18.9998 12.5648 18.8418 12.9463 18.5605 13.2277C18.2792 13.509 17.8977 13.667 17.4998 13.667Z" fill="#9C9990"/>
</svg>
