<svg width="20" height="20" viewBox="0 0 20 20" fill="none" xmlns="http://www.w3.org/2000/svg">
<path d="M1.66666 5.00033C1.66666 4.77931 1.75446 4.56735 1.91074 4.41107C2.06702 4.25479 2.27898 4.16699 2.5 4.16699H17.5C17.721 4.16699 17.933 4.25479 18.0893 4.41107C18.2455 4.56735 18.3333 4.77931 18.3333 5.00033C18.3333 5.22134 18.2455 5.4333 18.0893 5.58958C17.933 5.74586 17.721 5.83366 17.5 5.83366H2.5C2.27898 5.83366 2.06702 5.74586 1.91074 5.58958C1.75446 5.4333 1.66666 5.22134 1.66666 5.00033V5.00033ZM5 10.0003C5 9.77931 5.0878 9.56735 5.24408 9.41107C5.40036 9.25479 5.61232 9.16699 5.83333 9.16699H14.1667C14.3877 9.16699 14.5996 9.25479 14.7559 9.41107C14.9122 9.56735 15 9.77931 15 10.0003C15 10.2213 14.9122 10.4333 14.7559 10.5896C14.5996 10.7459 14.3877 10.8337 14.1667 10.8337H5.83333C5.61232 10.8337 5.40036 10.7459 5.24408 10.5896C5.0878 10.4333 5 10.2213 5 10.0003ZM8.33333 14.167C8.11232 14.167 7.90036 14.2548 7.74408 14.4111C7.5878 14.5673 7.5 14.7793 7.5 15.0003C7.5 15.2213 7.5878 15.4333 7.74408 15.5896C7.90036 15.7459 8.11232 15.8337 8.33333 15.8337H11.6667C11.8877 15.8337 12.0996 15.7459 12.2559 15.5896C12.4122 15.4333 12.5 15.2213 12.5 15.0003C12.5 14.7793 12.4122 14.5673 12.2559 14.4111C12.0996 14.2548 11.8877 14.167 11.6667 14.167H8.33333Z" fill="currentColor"/>
</svg>
