<svg width="24" height="24" viewBox="0 0 24 24" fill="none" xmlns="http://www.w3.org/2000/svg">
<path fill-rule="evenodd" clip-rule="evenodd" d="M19.9999 7.19464V15.909C19.9999 17.1107 19.0197 18.0908 17.8181 18.0908H6.1818C4.98015 18.0908 4 17.1107 4 15.909V7.1818C4 5.98015 4.98015 5 6.1818 5H17.8181C19.0139 5 19.9904 5.97069 19.9998 7.16437C20 7.17447 20.0001 7.18456 19.9999 7.19464ZM5.53206 6.85737C5.65234 6.61955 5.89966 6.45453 6.1818 6.45453H17.8181C18.1002 6.45453 18.3476 6.61958 18.4678 6.85743L12 11.3849L5.53206 6.85737ZM5.45453 8.57858V15.909C5.45453 16.3073 5.78347 16.6363 6.1818 16.6363H17.8181C18.2164 16.6363 18.5453 16.3073 18.5453 15.909V8.57867L12.4171 12.8685C12.1666 13.0438 11.8334 13.0438 11.5829 12.8685L5.45453 8.57858Z" fill="#DBD7C8"/>
</svg>
