<svg width="24" height="24" viewBox="0 0 24 24" fill="none" xmlns="http://www.w3.org/2000/svg">
<path d="M19.5923 18H8.59226C8.04225 18 7.59226 17.55 7.59226 17C7.59226 16.45 8.04225 16 8.59226 16H19.5923C20.1423 16 20.5923 16.45 20.5923 17C20.5923 17.55 20.1423 18 19.5923 18ZM19.5923 13H11.5923C11.0423 13 10.5923 12.55 10.5923 12C10.5923 11.45 11.0423 11 11.5923 11H19.5923C20.1423 11 20.5923 11.45 20.5923 12C20.5923 12.55 20.1423 13 19.5923 13ZM20.5923 7C20.5923 7.55 20.1423 8 19.5923 8H8.59226C8.04225 8 7.59226 7.55 7.59226 7C7.59226 6.45 8.04225 6 8.59226 6H19.5923C20.1423 6 20.5923 6.45 20.5923 7ZM3.29226 14.88L6.17226 12L3.29226 9.12C2.90226 8.73 2.90226 8.1 3.29226 7.71C3.68226 7.32 4.31226 7.32 4.70226 7.71L8.29225 11.3C8.68225 11.69 8.68225 12.32 8.29225 12.71L4.70226 16.3C4.31226 16.69 3.68226 16.69 3.29226 16.3C2.91226 15.91 2.90226 15.27 3.29226 14.88Z" fill="#9C9990"/>
</svg>
