<svg width="16" height="16" viewBox="0 0 16 16" fill="none" xmlns="http://www.w3.org/2000/svg">
<path d="M2.72669 9.99516L2.01774 13.0612C1.99328 13.1733 1.99412 13.2894 2.0202 13.4011C2.04627 13.5129 2.09691 13.6173 2.16843 13.7069C2.23996 13.7965 2.33055 13.869 2.43359 13.919C2.53663 13.969 2.64951 13.9953 2.764 13.996C2.81735 14.0014 2.8711 14.0014 2.92445 13.996L6.00277 13.2856L11.9131 7.38528L8.61468 4.0874L2.72669 9.99516Z" fill="currentColor"/>
<path d="M13.7715 4.43137L11.57 2.22531C11.4253 2.08101 11.2294 2 11.0252 2C10.8211 2 10.6252 2.08101 10.4805 2.22531L9.25659 3.45173L12.5513 6.75335L13.7752 5.52693C13.8468 5.45479 13.9035 5.36921 13.9421 5.27509C13.9807 5.18096 14.0004 5.08013 14 4.97837C13.9997 4.87662 13.9793 4.77593 13.9401 4.68207C13.9009 4.58821 13.8436 4.50302 13.7715 4.43137Z" fill="currentColor"/>
</svg>
