<svg width="16" height="16" viewBox="0 0 16 16" fill="none" xmlns="http://www.w3.org/2000/svg">
<path d="M12.7917 7.16667H8.83333V3.20833C8.83333 3.09375 8.73958 3 8.625 3H7.375C7.26042 3 7.16667 3.09375 7.16667 3.20833V7.16667H3.20833C3.09375 7.16667 3 7.26042 3 7.375V8.625C3 8.73958 3.09375 8.83333 3.20833 8.83333H7.16667V12.7917C7.16667 12.9062 7.26042 13 7.375 13H8.625C8.73958 13 8.83333 12.9062 8.83333 12.7917V8.83333H12.7917C12.9062 8.83333 13 8.73958 13 8.625V7.375C13 7.26042 12.9062 7.16667 12.7917 7.16667Z" fill="currentColor"/>
</svg>
