<svg width="24" height="24" viewBox="0 0 24 24" fill="none" xmlns="http://www.w3.org/2000/svg">
<path fill-rule="evenodd" clip-rule="evenodd" d="M9.33333 5C9.20875 5 9.09216 5.03417 8.9924 5.09365L4.33591 7.7545C4.12819 7.8732 4 8.0941 4 8.33333V19C4 19.2376 4.12651 19.4573 4.33205 19.5766C4.53759 19.6959 4.79109 19.6967 4.99743 19.5788L9.35431 17.0892L14.3565 19.5903C14.443 19.6358 14.5408 19.6629 14.6446 19.6663C14.652 19.6665 14.6593 19.6667 14.6667 19.6667C14.7912 19.6667 14.9078 19.6325 15.0076 19.573L19.6641 16.9122C19.8718 16.7935 20 16.5726 20 16.3333V5.66667C20 5.42902 19.8735 5.20934 19.668 5.09006C19.4624 4.97078 19.2089 4.96993 19.0026 5.08784L14.6457 7.57749L9.64348 5.07638C9.55083 5.02761 9.44531 5 9.33333 5ZM15.3333 17.8512L18.6667 15.9465V6.81545L15.3333 8.72022V17.8512ZM14 8.74536L10 6.74536V15.9213L14 17.9213V8.74536ZM5.33333 8.72022L8.66667 6.81545V15.9465L5.33333 17.8512V8.72022Z" fill="#DBD7C8"/>
</svg>
