<svg width="24" height="24" viewBox="0 0 24 24" fill="none" xmlns="http://www.w3.org/2000/svg">
<path fill-rule="evenodd" clip-rule="evenodd" d="M5.30175 14.4964C6.13524 13.7068 7.2657 13.2632 8.44444 13.2632H15.5556C16.7343 13.2632 17.8648 13.7068 18.6983 14.4964C19.5317 15.2861 20 16.357 20 17.4737V19.1579C20 19.623 19.602 20 19.1111 20C18.6202 20 18.2222 19.623 18.2222 19.1579V17.4737C18.2222 16.8037 17.9413 16.1611 17.4412 15.6873C16.9411 15.2136 16.2628 14.9474 15.5556 14.9474H8.44444C7.7372 14.9474 7.05892 15.2136 6.55883 15.6873C6.05873 16.1611 5.77778 16.8037 5.77778 17.4737V19.1579C5.77778 19.623 5.37981 20 4.88889 20C4.39797 20 4 19.623 4 19.1579V17.4737C4 16.357 4.46825 15.2861 5.30175 14.4964Z" fill="currentColor"/>
<path fill-rule="evenodd" clip-rule="evenodd" d="M12 5.68424C10.5272 5.68424 9.33333 6.81531 9.33333 8.21056C9.33333 9.6058 10.5272 10.7369 12 10.7369C13.4728 10.7369 14.6667 9.6058 14.6667 8.21056C14.6667 6.81531 13.4728 5.68424 12 5.68424ZM7.55556 8.21056C7.55556 5.88515 9.5454 4.00003 12 4.00003C14.4546 4.00003 16.4444 5.88515 16.4444 8.21056C16.4444 10.536 14.4546 12.4211 12 12.4211C9.5454 12.4211 7.55556 10.536 7.55556 8.21056Z" fill="currentColor"/>
</svg>
