<svg width="24" height="24" viewBox="0 0 24 24" fill="none" xmlns="http://www.w3.org/2000/svg">
<path fill-rule="evenodd" clip-rule="evenodd" d="M4.13126 14.4009C4.85559 13.6766 5.838 13.2697 6.86236 13.2697H13.0421C14.0665 13.2697 15.0489 13.6766 15.7732 14.4009C16.4976 15.1252 16.9045 16.1076 16.9045 17.132V18.677C16.9045 19.1036 16.5586 19.4494 16.132 19.4494C15.7054 19.4494 15.3595 19.1036 15.3595 18.677V17.132C15.3595 16.5174 15.1154 15.928 14.6808 15.4934C14.2462 15.0588 13.6567 14.8146 13.0421 14.8146H6.86236C6.24774 14.8146 5.6583 15.0588 5.2237 15.4934C4.7891 15.928 4.54494 16.5174 4.54494 17.132V18.677C4.54494 19.1036 4.1991 19.4494 3.77247 19.4494C3.34585 19.4494 3 19.1036 3 18.677V17.132C3 16.1076 3.40693 15.1252 4.13126 14.4009Z" fill="#DBD7C8"/>
<path fill-rule="evenodd" clip-rule="evenodd" d="M9.9522 5.54494C8.67233 5.54494 7.63479 6.58248 7.63479 7.86236C7.63479 9.14223 8.67233 10.1798 9.9522 10.1798C11.2321 10.1798 12.2696 9.14223 12.2696 7.86236C12.2696 6.58248 11.2321 5.54494 9.9522 5.54494ZM6.08984 7.86236C6.08984 5.72924 7.81908 4 9.9522 4C12.0853 4 13.8146 5.72924 13.8146 7.86236C13.8146 9.99548 12.0853 11.7247 9.9522 11.7247C7.81908 11.7247 6.08984 9.99548 6.08984 7.86236Z" fill="#DBD7C8"/>
<path fill-rule="evenodd" clip-rule="evenodd" d="M17.7015 13.9494C17.8081 13.5364 18.2295 13.2879 18.6425 13.3946C19.4711 13.6085 20.2052 14.0916 20.7295 14.768C21.2538 15.4443 21.5387 16.2757 21.5393 17.1314L21.5393 18.677C21.5393 19.1036 21.1935 19.4494 20.7668 19.4494C20.3402 19.4494 19.9944 19.1036 19.9944 18.677L19.9944 17.1326C19.9944 17.1325 19.9944 17.1327 19.9944 17.1326C19.9939 16.6192 19.823 16.1203 19.5085 15.7145C19.1939 15.3087 18.7535 15.0189 18.2563 14.8905C17.8432 14.7838 17.5948 14.3625 17.7015 13.9494Z" fill="#DBD7C8"/>
<path fill-rule="evenodd" clip-rule="evenodd" d="M14.6112 4.68129C14.7171 4.268 15.1379 4.01874 15.5512 4.12456C16.382 4.33728 17.1184 4.82046 17.6442 5.49793C18.1701 6.17539 18.4555 7.00861 18.4555 7.86622C18.4555 8.72383 18.1701 9.55704 17.6442 10.2345C17.1184 10.912 16.382 11.3952 15.5512 11.6079C15.1379 11.7137 14.7171 11.4644 14.6112 11.0511C14.5054 10.6379 14.7547 10.217 15.168 10.1112C15.6665 9.98358 16.1083 9.69367 16.4238 9.28719C16.7393 8.88071 16.9106 8.38078 16.9106 7.86622C16.9106 7.35165 16.7393 6.85172 16.4238 6.44524C16.1083 6.03876 15.6665 5.74886 15.168 5.62122C14.7547 5.5154 14.5054 5.09458 14.6112 4.68129Z" fill="#DBD7C8"/>
</svg>
